<?xml version="1.0" standalone="no"?><svg xmlns="http://www.w3.org/2000/svg" viewBox="0 0 1440 320"><path fill="#3864AC" fill-opacity="1" d="M0,224L40,229.3C80,235,160,245,240,240C320,235,400,213,480,224C560,235,640,277,720,277.3C800,277,880,235,960,202.7C1040,171,1120,149,1200,165.3C1280,181,1360,235,1400,261.3L1440,288L1440,320L1400,320C1360,320,1280,320,1200,320C1120,320,1040,320,960,320C880,320,800,320,720,320C640,320,560,320,480,320C400,320,320,320,240,320C160,320,80,320,40,320L0,320Z"></path></svg>